<?xml version="1.0" encoding="UTF-8"?>
<svg id="b" data-name="Capa 2" xmlns="http://www.w3.org/2000/svg" viewBox="0 0 389.75 365.36">
  <g id="c" data-name="Capa 1">
    <path d="m194.88,224.88c48.52,0,89.16-16.48,91.61-38.02l-22.84-63.99c-5.36,15.45-35.02,26.41-68.78,26.41s-63.42-10.96-68.78-26.41l-22.82,63.99c2.46,21.54,43.08,38.02,91.59,38.02Zm0-136.11c22.82,0,43.99-7.06,50.2-18.05-8.55-23.99-15.88-44.6-20.52-57.57-3.09-8.67-17.07-13.15-29.68-13.15s-26.59,4.49-29.68,13.15l-20.52,57.57c6.21,10.98,27.4,18.05,50.2,18.05Zm178.23,156.17l-76.23-30.73,8.79,24.5c-.45,25.96-50.83,46.67-110.8,46.67s-110.37-20.68-110.8-46.67l8.79-24.5-76.23,30.73c-21.38,8.61-22.29,24.54-1.99,35.4l143.36,76.88c20.26,10.86,53.45,10.86,73.73,0l143.38-76.88c20.28-10.86,19.37-26.8-2.01-35.4Z" style="fill: #f1d967; stroke-width: 0px;"/>
  </g>
</svg>