<?xml version="1.0" encoding="UTF-8"?>
<svg id="b" data-name="Capa 2" xmlns="http://www.w3.org/2000/svg" viewBox="0 0 203.29 203.29">
  <g id="c" data-name="Capa 1">
    <path d="m203.29,101.65c0-20.1-5.96-39.76-17.13-56.47-11.17-16.72-27.04-29.74-45.62-37.44C121.97.04,101.53-1.97,81.82,1.95c-19.72,3.92-37.83,13.6-52.05,27.82C15.56,43.99,5.88,62.1,1.95,81.82-1.97,101.53.04,121.97,7.74,140.55c7.69,18.57,20.72,34.45,37.44,45.62,16.72,11.17,36.37,17.13,56.47,17.13,26.95-.03,52.79-10.74,71.85-29.8,19.06-19.06,29.77-44.9,29.8-71.85Zm-93.83,85.62v-62.16h23.46c2.07,0,4.06-.82,5.53-2.29,1.47-1.47,2.29-3.46,2.29-5.53s-.82-4.06-2.29-5.53c-1.47-1.47-3.46-2.29-5.53-2.29h-23.46v-23.46c0-4.15,1.65-8.13,4.58-11.06,2.93-2.93,6.91-4.58,11.06-4.58h15.64c2.07,0,4.06-.82,5.53-2.29,1.47-1.47,2.29-3.46,2.29-5.53s-.82-4.06-2.29-5.53c-1.47-1.47-3.46-2.29-5.53-2.29h-15.64c-8.29.03-16.23,3.33-22.09,9.19-5.86,5.86-9.16,13.8-9.19,22.09v23.46h-23.46c-2.07,0-4.06.82-5.53,2.29s-2.29,3.46-2.29,5.53.82,4.06,2.29,5.53c1.47,1.47,3.46,2.29,5.53,2.29h23.46v62.16c-22.04-2.01-42.46-12.44-57.01-29.13-14.55-16.68-22.1-38.33-21.1-60.44,1.01-22.11,10.5-42.98,26.5-58.27,16-15.29,37.28-23.82,59.42-23.82s43.42,8.53,59.42,23.82c16,15.29,25.5,36.16,26.5,58.27,1.01,22.11-6.55,43.76-21.1,60.44-14.55,16.68-34.96,27.11-57.01,29.13Z" style="fill: #f7f0f0; stroke-width: 0px;"/>
  </g>
</svg>