<svg width="197" height="107" viewBox="0 0 197 107" fill="none" xmlns="http://www.w3.org/2000/svg">
<path id="Arrow 1" d="M70.6779 40.6486L76.8367 35.6708L71.0629 29.1398L64.8749 34.9893L70.6779 40.6486ZM108.913 83.8983L102.755 88.8762L108.474 95.3462L114.662 89.6081L108.913 83.8983ZM196.254 10.7159C196.27 6.38939 192.629 2.77415 188.123 2.64101L114.69 0.471389C110.184 0.338252 106.518 3.73763 106.502 8.06411C106.486 12.3906 110.126 16.0058 114.633 16.139L179.906 18.0675L179.675 80.7379C179.659 85.0644 183.299 88.6796 187.805 88.8127C192.312 88.9459 195.978 85.5465 195.994 81.22L196.254 10.7159ZM12.3366 106.944L76.4808 46.3079L64.8749 34.9893L0.730733 95.6253L12.3366 106.944ZM64.5191 45.6265L102.755 88.8762L115.072 78.9205L76.8367 35.6708L64.5191 45.6265ZM114.662 89.6081L193.843 16.1846L182.345 4.76501L103.164 78.1886L114.662 89.6081Z" fill="#F1D967"/>
</svg>
