<?xml version="1.0" encoding="UTF-8"?>
<svg id="b" data-name="Capa 2" xmlns="http://www.w3.org/2000/svg" viewBox="0 0 203.29 203.29">
  <g id="c" data-name="Capa 1">
    <path d="m101.65,53.94c-9.44,0-18.66,2.8-26.51,8.04-7.85,5.24-13.96,12.69-17.57,21.41-3.61,8.72-4.56,18.31-2.72,27.57,1.84,9.26,6.39,17.76,13.06,24.43,6.67,6.67,15.17,11.22,24.43,13.06,9.26,1.84,18.85.9,27.57-2.72,8.72-3.61,16.17-9.73,21.41-17.57,5.24-7.85,8.04-17.07,8.04-26.51,0-12.65-5.03-24.79-13.97-33.74-8.95-8.95-21.08-13.97-33.74-13.97Zm0,82.98c-6.97,0-13.79-2.07-19.59-5.94-5.8-3.88-10.32-9.38-12.99-15.83-2.67-6.44-3.37-13.53-2.01-20.38,1.36-6.84,4.72-13.12,9.65-18.06,4.93-4.93,11.22-8.29,18.06-9.65,6.84-1.36,13.93-.66,20.38,2.01,6.44,2.67,11.95,7.19,15.83,12.99,3.87,5.8,5.94,12.62,5.94,19.59-.03,9.34-3.75,18.3-10.36,24.91-6.61,6.61-15.56,10.33-24.91,10.36ZM147.28,0H56.01c-14.85,0-29.1,5.9-39.6,16.4C5.9,26.91,0,41.15,0,56.01v91.27c0,14.85,5.9,29.1,16.4,39.6,10.5,10.5,24.75,16.4,39.6,16.4h91.27c14.85,0,29.1-5.9,39.6-16.4,10.5-10.5,16.4-24.75,16.4-39.6V56.01c0-14.85-5.9-29.1-16.4-39.6C176.39,5.9,162.14,0,147.28,0Zm43.56,147.28c0,11.55-4.59,22.63-12.76,30.8-8.17,8.17-19.25,12.76-30.8,12.76H56.01c-11.55,0-22.63-4.59-30.8-12.76-8.17-8.17-12.76-19.25-12.76-30.8V56.01c0-11.55,4.59-22.63,12.76-30.8,8.17-8.17,19.25-12.76,30.8-12.76h91.27c11.55,0,22.63,4.59,30.8,12.76,8.17,8.17,12.76,19.25,12.76,30.8v91.27Zm-24.89-99.57c0,2.05-.61,4.06-1.75,5.76-1.14,1.71-2.76,3.04-4.65,3.82s-3.98.99-5.99.59c-2.01-.4-3.86-1.39-5.31-2.84-1.45-1.45-2.44-3.3-2.84-5.31-.4-2.01-.19-4.1.59-5.99.79-1.9,2.11-3.52,3.82-4.65,1.71-1.14,3.71-1.75,5.76-1.75,2.75,0,5.39,1.09,7.33,3.04,1.94,1.94,3.04,4.58,3.04,7.33Z" style="fill: #f7f0f0; stroke-width: 0px;"/>
  </g>
</svg>