<?xml version="1.0" encoding="UTF-8"?>
<svg id="b" data-name="Capa 2" xmlns="http://www.w3.org/2000/svg" viewBox="0 0 202.82 202.82">
  <g id="c" data-name="Capa 1">
    <g>
      <path d="m152.23,112.4v37.58h-21.78v-35.07c0-8.8-3.15-14.81-11.04-14.81-6.02,0-9.61,4.05-11.18,7.97-.57,1.4-.72,3.35-.72,5.31v36.6h-21.79s.3-59.38,0-65.53h21.79v9.28l-.14.21h.14v-.21c2.9-4.47,8.06-10.83,19.64-10.83,14.33,0,25.09,9.37,25.09,29.5ZM62.91,52.84c-7.45,0-12.33,4.9-12.33,11.32s4.74,11.33,12.04,11.33h.14c7.6,0,12.33-5.04,12.33-11.33-.14-6.42-4.73-11.32-12.19-11.32Zm-11.04,97.13h21.79v-65.53h-21.79v65.53Z" style="fill: #f7f0f0; stroke-width: 0px;"/>
      <path d="m101.41,202.82C45.49,202.82,0,157.32,0,101.41S45.49,0,101.41,0s101.41,45.49,101.41,101.41-45.49,101.41-101.41,101.41Zm0-187.82C53.76,15,15,53.76,15,101.41s38.76,86.41,86.41,86.41,86.41-38.76,86.41-86.41S149.05,15,101.41,15Z" style="fill: #fff; stroke-width: 0px;"/>
    </g>
  </g>
</svg>