<svg width="56" height="56" viewBox="0 0 56 56" fill="none" xmlns="http://www.w3.org/2000/svg">
<path d="M28.0003 26.8337C26.4532 26.8337 24.9695 26.2191 23.8755 25.1251C22.7816 24.0312 22.167 22.5474 22.167 21.0003C22.167 19.4532 22.7816 17.9695 23.8755 16.8755C24.9695 15.7816 26.4532 15.167 28.0003 15.167C29.5474 15.167 31.0312 15.7816 32.1251 16.8755C33.2191 17.9695 33.8337 19.4532 33.8337 21.0003C33.8337 21.7664 33.6828 22.5249 33.3896 23.2326C33.0965 23.9404 32.6668 24.5834 32.1251 25.1251C31.5834 25.6668 30.9404 26.0965 30.2326 26.3896C29.5249 26.6828 28.7664 26.8337 28.0003 26.8337ZM28.0003 4.66699C23.6685 4.66699 19.514 6.38782 16.4509 9.45091C13.3878 12.514 11.667 16.6685 11.667 21.0003C11.667 33.2503 28.0003 51.3337 28.0003 51.3337C28.0003 51.3337 44.3337 33.2503 44.3337 21.0003C44.3337 16.6685 42.6128 12.514 39.5497 9.45091C36.4866 6.38782 32.3322 4.66699 28.0003 4.66699Z" fill="#F7F0F0"/>
</svg>
