<?xml version="1.0" encoding="UTF-8"?>
<svg id="b" data-name="Capa 2" xmlns="http://www.w3.org/2000/svg" viewBox="0 0 213.67 166.65">
  <g id="c" data-name="Capa 1">
    <g>
      <circle cx="209.12" cy="87.72" r="4.47" style="fill: #fff; stroke: #000; stroke-miterlimit: 10; stroke-width: .17px;"/>
      <path d="m97.22,34.72c-2.71-1.52-4.69-1.62-7.34,0-5.22,3.18-10.67,5.97-16.08,8.94.19.18.23.24.29.27,20.64,11.36,41.29,22.72,61.95,34.03.5.27,1.4.3,1.89.04,6.26-3.36,12.48-6.8,18.93-10.34-.84-.5-1.47-.9-2.12-1.26-19.19-10.54-38.41-21.01-57.52-31.69Z" style="fill: none; stroke: #000; stroke-miterlimit: 10; stroke-width: .17px;"/>
      <path d="m171.89,58.77c-20.59-11.33-41.19-22.66-61.79-33.97-.42-.23-1.12-.38-1.5-.18-2.02,1.01-3.98,2.14-6.3,3.42,4.19,2.3,8.02,4.41,11.85,6.51,16.57,9.1,33.13,18.21,49.71,27.29.72.39,1.79.83,2.41.56,2.02-.87,3.91-2.06,6.04-3.24-.31-.3-.36-.36-.41-.4Z" style="fill: none; stroke: #000; stroke-miterlimit: 10; stroke-width: .17px;"/>
      <path d="m131.16,84.9c-20.12-11.02-40.23-22.07-60.34-33.12-.47-.26-.96-.47-1.63-.8-.04.62-.09,1.01-.09,1.4,0,22.2.01,44.41-.04,66.61,0,1.33.64,1.8,1.6,2.33,20.12,11.03,40.23,22.08,60.34,33.11.52.29,1.09.51,1.75.81.03-.56.07-.9.07-1.24,0-22.2-.01-44.41.04-66.61,0-1.39-.63-1.92-1.69-2.5Z" style="fill: none; stroke: #000; stroke-miterlimit: 10; stroke-width: .17px;"/>
      <path d="m138.08,9.6c-.62-.34-1.77-.21-2.44.15-5.48,2.92-10.91,5.94-16.34,8.94-.39.22-.75.5-1.31.86,7.21,3.96,14.24,7.82,21.26,11.68,13.45,7.39,26.9,14.79,40.38,22.13.73.4,1.96.63,2.61.28,5.98-3.15,11.89-6.44,17.97-9.78-.28-.26-.36-.38-.48-.44-20.54-11.29-41.08-22.59-61.66-33.82Z" style="fill: none; stroke: #000; stroke-miterlimit: 10; stroke-width: .17px;"/>
      <path d="m169.85,71.19c-.06,4.53-.04,9.05-.04,13.77,6.58-2.25,7.07-2.91,7.07-9.33v-9.38c-2.36,1.29-4.33,2.3-6.22,3.45-.42.26-.8.97-.81,1.48Z" style="fill: none; stroke: #000; stroke-miterlimit: 10; stroke-width: .17px;"/>
      <path d="m204.92,69.05c0,3.24.81,4.83,2.79,5.51,2,.69,3.61-.03,5.59-2.49v-29.77c-.96-.87-1.78-1.97-2.88-2.57-23.52-12.98-47.08-25.89-70.6-38.86-1.99-1.09-3.73-1.03-5.7.06-23.52,12.97-47.07,25.9-70.62,38.8-1.93,1.06-2.86,2.51-2.8,4.72.07,2.56.02,5.13.02,7.88h-.47v8.38h.29v15.09c-.1,0-.19,0-.29,0v8.38h.28v21.8h-.28v8.38h.47c0,2.7.09,5.07-.03,7.44-.13,2.55.94,4.13,3.17,5.35,23.39,12.78,46.75,25.61,70.09,38.49,2.13,1.17,3.93,1.23,6.07.05,23.28-12.83,46.6-25.59,69.87-38.45,1.33-.73,2.29-2.12,3.42-3.2v-20.96c-.14-.24-.28-.48-.42-.72-1.23-2-2.9-2.74-4.93-2.21-1.81.48-3,2.08-3.02,4.28-.04,4.82.04,9.64-.07,14.46-.02.77-.61,1.87-1.26,2.23-20.33,11.24-40.69,22.41-61.06,33.58-.35.19-.73.32-1.35.6v-2.25c0-21.72.02-43.44-.04-65.16,0-1.53.43-2.35,1.8-3.08,5.43-2.87,10.78-5.88,16.16-8.83.65-.36,1.33-.66,2.31-1.14,0,4.47,0,8.63,0,12.8,0,1.61-.09,3.22.04,4.82.28,3.3,3.29,5.05,6.22,3.51,5.18-2.73,10.29-5.6,15.41-8.45,1.63-.91,2.19-2.39,2.18-4.22-.04-6.63-.04-13.27.03-19.9,0-.76.38-1.9.94-2.22,6.05-3.45,12.17-6.76,18.67-10.33v2.7c0,5.17,0,10.34,0,15.5Zm-72.11,84.96c0,.34-.04.69-.07,1.24-.66-.31-1.22-.53-1.75-.81-20.11-11.04-40.22-22.08-60.34-33.11-.96-.53-1.6-1-1.6-2.33.05-22.2.04-44.41.04-66.61,0-.39.05-.78.09-1.4.68.33,1.17.54,1.63.8,20.11,11.04,40.22,22.09,60.34,33.12,1.06.58,1.69,1.11,1.69,2.5-.05,22.2-.04,44.41-.04,66.61Zm5.12-76c-.49.26-1.39.24-1.89-.04-20.67-11.32-41.31-22.68-61.95-34.03-.06-.03-.1-.09-.29-.27,5.41-2.98,10.86-5.76,16.08-8.94,2.66-1.62,4.63-1.52,7.34,0,19.11,10.67,38.33,21.15,57.52,31.69.65.36,1.28.76,2.12,1.26-6.46,3.54-12.68,6.98-18.93,10.34Zm28.34-15.61c-.61.27-1.69-.17-2.41-.56-16.58-9.07-33.14-18.18-49.71-27.29-3.83-2.11-7.66-4.21-11.85-6.51,2.32-1.27,4.28-2.41,6.3-3.42.38-.19,1.08-.05,1.5.18,20.61,11.31,41.2,22.64,61.79,33.97.06.03.1.09.41.4-2.13,1.17-4.02,2.36-6.04,3.24Zm10.62,10.93v2.3c0,6.43-.48,7.08-7.07,9.33,0-4.72-.03-9.25.04-13.77,0-.51.38-1.23.81-1.48,1.89-1.15,3.86-2.16,6.22-3.45v7.08Zm5.36-19.69c-.65.34-1.88.11-2.61-.28-13.48-7.34-26.92-14.74-40.38-22.13-7.03-3.86-14.05-7.72-21.26-11.68.55-.37.91-.65,1.31-.86,5.44-3,10.86-6.02,16.34-8.94.67-.36,1.82-.48,2.44-.15,20.58,11.23,41.11,22.53,61.66,33.82.12.06.21.19.48.44-6.08,3.33-11.99,6.63-17.97,9.78Z" style="fill: #f1d967; stroke: #000; stroke-miterlimit: 10; stroke-width: .17px;"/>
      <path d="m7.23,106.02c1.04,0,2.09-.05,3.13,0,2.35.14,3.95,1.74,4.03,3.96.09,2.33-1.47,4.2-3.87,4.34-2.22.14-4.46.14-6.68-.02-2.24-.16-3.83-2.12-3.77-4.26.07-2.17,1.73-3.87,4.01-4.02,1.04-.07,2.09-.01,3.13-.01Z" style="fill: #fff; stroke: #000; stroke-miterlimit: 10; stroke-width: .17px;"/>
      <path d="m21.32,75.84c2.26,0,4.16,1.87,4.18,4.11.03,2.3-2.01,4.3-4.3,4.24-2.28-.07-4.04-1.94-4.02-4.25.02-2.31,1.84-4.1,4.13-4.1Z" style="fill: #fff; stroke: #000; stroke-miterlimit: 10; stroke-width: .17px;"/>
      <path d="m37.8,75.86c-1.23.02-2.64.45-3.65,1.15-1.46,1.01-1.66,2.74-1.1,4.36.67,1.93,2.21,2.81,4.22,2.81,7.13.01,14.25,0,21.38,0,.64,0,1.27,0,1.88,0v-8.38c-7.69,0-15.21-.05-22.73.05Z" style="fill: #fff; stroke: #000; stroke-miterlimit: 10; stroke-width: .17px;"/>
      <path d="m27.72,106c-.77,0-1.54-.04-2.3.06-1.96.25-3.45,1.85-3.61,3.78-.15,1.86.94,3.63,2.77,4.21.84.27,1.78.32,2.67.32,10.55.02,21.1.01,31.65.01h1.82l-.19-8.38c-11.12,0-21.87,0-32.81,0Z" style="fill: #fff; stroke: #000; stroke-miterlimit: 10; stroke-width: .17px;"/>
      <path d="m58.68,52.34c-13.76,0-27.53,0-41.29,0-1.61,0-3.22-.06-4.82.04-2.24.13-3.8,1.75-3.9,3.89-.11,2.26,1.35,4.06,3.62,4.39.69.1,1.39.06,2.09.06,14.74,0,29.48,0,44.22,0,.71,0,1.23,0,1.91,0l.18-8.38h-2.02Z" style="fill: #fff; stroke: #000; stroke-miterlimit: 10; stroke-width: .17px;"/>
    </g>
  </g>
</svg>