<?xml version="1.0" encoding="UTF-8"?>
<svg xmlns="http://www.w3.org/2000/svg" width="46" height="46" viewBox="0 0 46 46" fill="none">
  <path d="M23 0.687501C19.1092 0.688135 15.2863 1.70615 11.9104 3.64053C8.53463 5.57491 5.72331 8.35842 3.75545 11.7148C1.78759 15.0712 0.731601 18.8839 0.692272 22.7745C0.652943 26.665 1.63164 30.4982 3.53124 33.8937L1.60625 40.6094C1.44905 41.135 1.43699 41.6933 1.57133 42.2252C1.70567 42.7571 1.98141 43.2427 2.36933 43.6307C2.75725 44.0186 3.24289 44.2943 3.77479 44.4287C4.30669 44.563 4.86502 44.5509 5.39062 44.3937L12.1062 42.4688C15.0819 44.1348 18.3999 45.0965 21.8052 45.2801C25.2106 45.4637 28.6127 44.8643 31.7502 43.5279C34.8878 42.1915 37.6772 40.1536 39.9043 37.5709C42.1314 34.9882 43.7368 31.9294 44.5972 28.6294C45.4576 25.3294 45.5501 21.8761 44.8676 18.5348C44.1852 15.1935 42.7459 12.0531 40.6603 9.35482C38.5747 6.65656 35.8984 4.47228 32.8369 2.96977C29.7754 1.46726 26.4103 0.686508 23 0.687501ZM23 42.6875C19.4664 42.6865 15.9982 41.7344 12.9594 39.9312C12.7505 39.8198 12.518 39.7598 12.2812 39.7563C12.1629 39.7491 12.0442 39.764 11.9312 39.8L4.66875 41.8781C4.59273 41.9015 4.51177 41.9038 4.43458 41.8846C4.35739 41.8654 4.28688 41.8256 4.23064 41.7694C4.1744 41.7131 4.13455 41.6426 4.11539 41.5654C4.09622 41.4882 4.09846 41.4073 4.12187 41.3312L6.2 34.0688C6.24906 33.8974 6.26272 33.7179 6.24016 33.5412C6.21759 33.3644 6.15927 33.1941 6.06874 33.0406C3.8534 29.3042 2.93598 24.94 3.45936 20.6278C3.98275 16.3157 5.91756 12.2977 8.96243 9.19972C12.0073 6.10174 15.9912 4.09774 20.2937 3.49987C24.5962 2.902 28.9756 3.74383 32.7497 5.89424C36.5239 8.04464 39.4809 11.3829 41.1602 15.3889C42.8395 19.395 43.1468 23.844 42.0341 28.0429C40.9215 32.2418 38.4514 35.9548 35.0086 38.6036C31.5659 41.2524 27.3438 42.6883 23 42.6875ZM34.2656 26.675L29.7812 24.1156C29.3092 23.8494 28.775 23.7131 28.2331 23.7208C27.6913 23.7285 27.1611 23.8798 26.6969 24.1594L23.8969 25.8438C22.3055 24.997 21.003 23.6945 20.1562 22.1031L21.8406 19.3031C22.1202 18.8389 22.2715 18.3087 22.2792 17.7668C22.2869 17.225 22.1506 16.6908 21.8844 16.2188L19.325 11.7344C19.0765 11.3039 18.7195 10.9462 18.2896 10.6967C17.8598 10.4472 17.372 10.3147 16.875 10.3125C14.9062 10.3125 13.0178 11.0931 11.6236 12.4832C10.2294 13.8732 9.44329 15.7594 9.4375 17.7281C9.43462 20.2005 9.9191 22.6491 10.8632 24.9341C11.8074 27.219 13.1926 29.2955 14.9398 31.0447C16.687 32.7939 18.7618 34.1816 21.0457 35.1284C23.3296 36.0752 25.7777 36.5625 28.25 36.5625H28.2719C30.2406 36.5567 32.1268 35.7706 33.5168 34.3764C34.9069 32.9822 35.6875 31.0938 35.6875 29.125C35.6853 28.628 35.5528 28.1402 35.3033 27.7104C35.0538 27.2805 34.6961 26.9235 34.2656 26.675ZM28.2719 33.9375H28.25C23.9548 33.9317 19.8375 32.2214 16.8024 29.1822C13.7673 26.1429 12.0625 22.0233 12.0625 17.7281C12.0683 16.4556 12.5779 15.2371 13.4798 14.3393C14.3816 13.4415 15.6024 12.9375 16.875 12.9375C16.9424 12.943 17.0051 12.9744 17.05 13.025L19.6094 17.5094C19.6445 17.5778 19.661 17.6543 19.6571 17.7311C19.6533 17.8079 19.6293 17.8823 19.5875 17.9469L17.5531 21.3813C17.4379 21.558 17.3695 21.7611 17.3542 21.9715C17.3389 22.1819 17.3772 22.3928 17.4656 22.5844C18.6615 25.2238 20.7762 27.3385 23.4156 28.5344C23.6072 28.6228 23.8181 28.6611 24.0285 28.6458C24.2389 28.6305 24.442 28.5621 24.6187 28.4469L28.0531 26.4125C28.1177 26.3707 28.1921 26.3467 28.2689 26.3429C28.3457 26.339 28.4222 26.3555 28.4906 26.3906L32.975 28.95C33.0256 28.9949 33.057 29.0576 33.0625 29.125C33.0625 30.3976 32.5585 31.6183 31.6607 32.5202C30.7629 33.4221 29.5444 33.9317 28.2719 33.9375Z" fill="#F7F0F0"/>
</svg>